<?xml version="1.0" encoding="UTF-8" standalone="no"?>
<!-- Uploaded to: SVG Repo, www.svgrepo.com, Generator: SVG Repo Mixer Tools -->

<svg
   fill="#000000"
   width="512"
   height="512"
   viewBox="-1.5 0 12.16 12.16"
   class="cf-icon-svg"
   version="1.1"
   id="svg1"
   sodipodi:docname="foreground.svg"
   inkscape:version="1.3 (0e150ed6c4, 2023-07-21)"
   xmlns:inkscape="http://www.inkscape.org/namespaces/inkscape"
   xmlns:sodipodi="http://sodipodi.sourceforge.net/DTD/sodipodi-0.dtd"
   xmlns="http://www.w3.org/2000/svg"
   xmlns:svg="http://www.w3.org/2000/svg">
  <defs
     id="defs1" />
  <sodipodi:namedview
     id="namedview1"
     pagecolor="#ffffff"
     bordercolor="#000000"
     borderopacity="0.25"
     inkscape:showpageshadow="2"
     inkscape:pageopacity="0.0"
     inkscape:pagecheckerboard="0"
     inkscape:deskcolor="#d1d1d1"
     inkscape:zoom="0.98625"
     inkscape:cx="399.49303"
     inkscape:cy="318.88466"
     inkscape:window-width="1920"
     inkscape:window-height="1000"
     inkscape:window-x="0"
     inkscape:window-y="0"
     inkscape:window-maximized="1"
     inkscape:current-layer="svg1" />
  <path
     d="m 3.2490669,2.4637121 v 2.1243174 a 0.646721,0.65490777 0 0 1 -1.2921863,0 V 3.9712717 A 3.3912041,3.4341329 0 0 0 1.3089039,5.4146121 0.646721,0.65490777 0 1 1 0.04057733,5.1634581 4.6852739,4.7445842 0 0 1 0.97486933,3.1173483 h -0.4696576 a 0.646721,0.65490777 0 1 1 0,-1.3085439 H 2.6023458 A 0.646721,0.65490777 0 0 1 3.2490669,2.4637121 Z M 1.2084424,8.3368996 A 0.64546524,0.6536361 0 0 1 0.35577533,8.004359 4.7072499,4.7668384 0 0 1 0.12345803,7.3456362 0.646721,0.65490777 0 1 1 1.3685529,6.9959282 3.4370395,3.4805486 0 0 0 1.5374538,7.4734386 0.64609312,0.65427193 0 0 1 1.2084424,8.3368996 Z M 3.0324468,9.887696 A 0.64546524,0.6536361 0 0 1 2.1408508,10.092434 4.722947,4.7827342 0 0 1 1.585173,9.677871 0.646721,0.65490777 0 0 1 2.4265382,8.6840642 3.4125521,3.4557512 0 0 0 2.830268,8.984813 0.646721,0.65490777 0 0 1 3.0324468,9.887696 Z M 5.3430616,10.16619 A 0.646721,0.65490777 0 0 1 4.7063867,10.83 H 4.6398307 A 4.701599,4.7611158 0 0 1 4.1306164,10.80202 0.646721,0.65490777 0 0 1 4.2712626,9.501106 3.396855,3.4398553 0 0 0 4.6881778,9.520816 h 0.00879 a 0.646721,0.65490777 0 0 1 0.6467177,0.64537 z m 0.021348,-8.1685432 a 0.646721,0.65490777 0 0 1 -0.646093,0.6421911 h -0.02072 a 0.6467431,0.65493012 0 0 1 0.01068,-1.3098156 h 0.01068 l 0.01192,6.358e-4 a 0.646721,0.65490777 0 0 1 0.633533,0.6676244 z M 7.3962436,9.150766 A 0.64609312,0.65427193 0 0 1 7.2078786,10.056827 4.6946922,4.7541217 0 0 1 6.7074545,10.34486 0.646721,0.65490777 0 1 1 6.1392191,9.169205 3.440179,3.4837278 0 0 0 6.5021363,8.960652 0.646721,0.65490777 0 0 1 7.3962436,9.151401 Z M 6.1486374,2.2233673 A 0.64609312,0.65427193 0 0 1 7.0339545,1.9951035 l 0.011307,0.007 A 0.646721,0.65490777 0 1 1 6.3796988,3.1237067 l -0.00628,-0.00381 A 0.64609312,0.65427193 0 0 1 6.1486374,2.2233673 Z M 8.8234256,8.228808 A 4.7091335,4.7687458 0 0 1 8.6256416,8.5848744 0.646721,0.65490777 0 1 1 7.5274716,7.89436 3.1457011,3.1855222 0 0 0 7.6706296,7.6368477 0.646721,0.65490777 0 1 1 8.8234256,8.2281722 Z m -1.230026,-3.84806 a 0.646721,0.65490777 0 0 1 1.123913,-0.6460061 l 0.005,0.00827 a 0.646721,0.65490777 0 1 1 -1.123917,0.6466412 z m 1.735473,1.5813161 a 5.8562784,5.9304124 0 0 1 0,0.2327148 0.646721,0.65490777 0 0 1 -0.646094,0.639012 h -0.0157 a 0.646721,0.65490777 0 0 1 -0.630396,-0.6708036 2.9039657,2.9407266 0 0 0 0,-0.1691315 0.646721,0.65490777 0 0 1 0.629768,-0.6708035 h 0.01633 a 0.646721,0.65490777 0 0 1 0.646093,0.6383759 z"
     id="path1"
     style="fill:#ffffff;stroke-width:0.631845" />
</svg>
